<!--?xml version="1.0" encoding="utf-8"?-->
<!-- Generator: Adobe Illustrator 18.0.0, SVG Export Plug-In . SVG Version: 6.00 Build 0)  -->

<svg version="1.1" id="_x31_0" xmlns="http://www.w3.org/2000/svg" xmlns:xlink="http://www.w3.org/1999/xlink" x="0px" y="0px" viewBox="0 0 512 512" style="width: 256px; height: 256px; opacity: 1;" xml:space="preserve">
<style type="text/css">
	.st0{fill:#374149;}
</style>
<g>
	<path class="st0" d="M241.031,212.289c-33.672,0-61.066,27.398-61.066,61.07s27.394,61.07,61.066,61.07
		c33.676,0,61.07-27.398,61.07-61.07S274.707,212.289,241.031,212.289z M241.031,309.282c-19.84,0-35.922-16.078-35.922-35.922
		c0-19.843,16.082-35.922,35.922-35.922s35.926,16.078,35.926,35.922C276.957,293.203,260.871,309.282,241.031,309.282z" style="fill: rgb(75, 75, 75);"></path>
	<path class="st0" d="M352.394,205.102c-9.918,0-17.961,8.047-17.961,17.969c0,9.914,8.043,17.961,17.961,17.961
		c9.922,0,17.961-8.047,17.961-17.961C370.355,213.149,362.317,205.102,352.394,205.102z" style="fill: rgb(75, 75, 75);"></path>
	<path class="st0" d="M256,0C114.617,0,0,114.61,0,256c0,141.383,114.617,256,256,256c141.386,0,256-114.617,256-256
		C512,114.61,397.386,0,256,0z M406.879,361.07c0,11.078-8.981,20.062-20.059,20.062H125.18c-11.078,0-20.055-8.984-20.055-20.062
		V192.836c0-11.078,8.977-20.062,20.055-20.062h25.492l4.523-24.5c1.863-10.086,10.66-17.406,20.918-17.406h97.507
		c10.258,0,19.055,7.32,20.918,17.406l4.523,24.5h87.758c11.078,0,20.059,8.984,20.059,20.062V361.07z" style="fill: rgb(75, 75, 75);"></path>
</g>
</svg>
